<?xml version="1.0" encoding="utf-8"?>
<!-- Generator: Adobe Illustrator 15.0.0, SVG Export Plug-In . SVG Version: 6.00 Build 0)  -->
<!DOCTYPE svg PUBLIC "-//W3C//DTD SVG 1.1//EN" "http://www.w3.org/Graphics/SVG/1.1/DTD/svg11.dtd">
<svg version="1.1" id="Layer_1" xmlns="http://www.w3.org/2000/svg" xmlns:xlink="http://www.w3.org/1999/xlink" x="0px" y="0px"
	 width="16px" height="16px" viewBox="0 0 16 16" enable-background="new 0 0 16 16" xml:space="preserve">
<g id="Atom">
	<path fill="#FFFFFF" d="M5.328,6.264c-0.132,0.204-0.261,0.41-0.387,0.619C4.81,6.52,4.689,6.15,4.584,5.779
		c0.362-0.053,0.747-0.094,1.152-0.121C5.597,5.857,5.461,6.06,5.328,6.264L5.328,6.264z M15.332,6.988
		c-0.4-0.385-0.974-0.737-1.703-1.048c-1.447-0.616-3.387-1.016-5.46-1.124c-0.243-0.014-0.486-0.022-0.73-0.027
		c1.583-1.89,3.112-2.895,4.003-2.929c0.188-0.007,0.347,0.03,0.471,0.11c0.416,0.271,0.532,1.111,0.309,2.247
		c-0.04,0.226,0.109,0.44,0.335,0.48c0.22,0.04,0.431-0.103,0.478-0.321c0.384-1.953-0.152-2.764-0.67-3.1
		c-0.271-0.176-0.591-0.258-0.954-0.244C10.04,1.085,8.121,2.545,6.37,4.797C5.677,4.82,5.009,4.881,4.383,4.975
		C4.316,4.669,4.264,4.36,4.226,4.051C4.068,2.756,4.261,1.838,4.741,1.593c0.076-0.039,0.161-0.062,0.257-0.069
		C5.427,1.492,6.031,1.779,6.7,2.334c0.177,0.145,0.438,0.119,0.582-0.059c0.143-0.175,0.119-0.432-0.054-0.578
		C6.37,0.984,5.599,0.648,4.937,0.698C4.731,0.714,4.539,0.767,4.364,0.855C3.919,1.082,3.615,1.518,3.46,2.148
		C3.327,2.689,3.309,3.362,3.404,4.15c0.037,0.312,0.093,0.636,0.164,0.97C3.079,5.223,2.626,5.349,2.221,5.495
		C0.443,6.137,0.033,6.982,0.002,7.579c-0.029,0.57,0.263,1.419,1.821,2.223c0.205,0.101,0.453,0.016,0.554-0.189
		c0.098-0.199,0.021-0.44-0.174-0.546C1.306,8.604,0.805,8.077,0.829,7.623c0.033-0.641,1.107-1.318,2.937-1.701
		C3.935,6.534,4.152,7.17,4.413,7.813c-0.657,1.234-1.137,2.451-1.386,3.533c-0.178,0.772-0.229,1.443-0.154,1.994
		c0.088,0.644,0.346,1.107,0.765,1.381c0.214,0.139,0.502,0.247,0.881,0.247c0.549,0,1.287-0.229,2.264-0.925
		c0.188-0.132,0.231-0.391,0.101-0.577c-0.132-0.187-0.391-0.231-0.577-0.1c-0.001,0.001-0.003,0.002-0.004,0.003
		c-0.963,0.687-1.79,0.932-2.213,0.657c-0.451-0.293-0.547-1.227-0.255-2.496c0.193-0.842,0.539-1.774,1.008-2.736
		C4.943,9.015,5.05,9.232,5.16,9.448c0.942,1.852,2.096,3.462,3.248,4.536c0.581,0.54,1.136,0.921,1.65,1.131
		c0.313,0.128,0.605,0.191,0.877,0.191c0.252,0,0.486-0.055,0.7-0.164c0.43-0.219,0.729-0.633,0.889-1.229
		c0.137-0.511,0.167-1.147,0.091-1.893c-0.149-1.466-0.703-3.253-1.56-5.033c-0.103-0.204-0.352-0.286-0.556-0.184
		c-0.198,0.101-0.282,0.34-0.189,0.542c0.815,1.696,1.342,3.386,1.481,4.759c0.123,1.207-0.075,2.067-0.532,2.3
		c-0.479,0.244-1.334-0.14-2.287-1.027C7.89,12.369,6.797,10.84,5.897,9.073C5.695,8.676,5.506,8.271,5.33,7.862
		c0.218-0.391,0.449-0.773,0.692-1.148C6.266,6.34,6.521,5.973,6.787,5.615c0.067-0.002,0.136-0.002,0.205-0.002
		c0.355-0.002,0.736,0.008,1.134,0.029c1.979,0.104,3.818,0.48,5.179,1.06c1.197,0.51,1.896,1.135,1.867,1.673
		c-0.024,0.457-0.579,0.929-1.522,1.295c-0.212,0.086-0.314,0.327-0.229,0.539c0.084,0.208,0.318,0.312,0.529,0.233
		c1.64-0.637,2.02-1.452,2.049-2.023C16.024,7.919,15.801,7.438,15.332,6.988L15.332,6.988z"/>
	<path fill="#FFFFFF" d="M7.146,8.11c0,0.499,0.404,0.904,0.904,0.904c0.499,0,0.904-0.405,0.904-0.904
		c0-0.5-0.405-0.905-0.904-0.905C7.551,7.205,7.146,7.61,7.146,8.11"/>
</g>
</svg>
