<?xml version="1.0" encoding="utf-8"?>
<!-- Generator: Adobe Illustrator 15.0.0, SVG Export Plug-In . SVG Version: 6.00 Build 0)  -->
<!DOCTYPE svg PUBLIC "-//W3C//DTD SVG 1.1//EN" "http://www.w3.org/Graphics/SVG/1.1/DTD/svg11.dtd">
<svg version="1.1" id="Layer_1" xmlns="http://www.w3.org/2000/svg" xmlns:xlink="http://www.w3.org/1999/xlink" x="0px" y="0px"
	 width="16px" height="16px" viewBox="0 0 16 16" enable-background="new 0 0 16 16" xml:space="preserve">
<g id="BitBucket">
	<path fill="#FFFFFF" d="M14.86,2.827c-0.171,1.093-0.534,3.237-1.091,6.432c-0.032,0.196-0.121,0.38-0.265,0.55
		s-0.286,0.301-0.427,0.393s-0.319,0.193-0.535,0.305c-1.649,0.824-3.646,1.111-5.989,0.863c-1.623-0.177-2.913-0.631-3.868-1.364
		c-0.098-0.079-0.182-0.165-0.25-0.26c-0.069-0.096-0.124-0.21-0.167-0.344S2.197,9.155,2.18,9.067
		C2.164,8.979,2.145,8.85,2.122,8.68C2.098,8.509,2.081,8.395,2.068,8.336C2.009,8.009,1.921,7.518,1.807,6.863
		S1.601,5.68,1.533,5.277C1.463,4.875,1.387,4.393,1.301,3.829c-0.084-0.563-0.156-1.08-0.216-1.552
		c0.021-0.17,0.077-0.328,0.172-0.476c0.096-0.147,0.198-0.27,0.31-0.368c0.111-0.098,0.259-0.197,0.442-0.295
		C2.192,1.041,2.343,0.967,2.46,0.918s0.274-0.109,0.472-0.182c0.817-0.301,1.842-0.51,3.072-0.628
		c2.48-0.243,4.693-0.078,6.636,0.491c1.015,0.301,1.719,0.699,2.111,1.197c0.104,0.131,0.158,0.299,0.162,0.501
		C14.917,2.501,14.899,2.678,14.86,2.827z M13.083,12.264c-0.053,0.169-0.104,0.42-0.152,0.75c-0.049,0.331-0.095,0.605-0.138,0.824
		c-0.043,0.22-0.136,0.449-0.279,0.688c-0.145,0.24-0.334,0.424-0.569,0.556c-0.563,0.313-1.184,0.548-1.86,0.701
		c-0.678,0.154-1.338,0.227-1.983,0.217c-0.646-0.011-1.305-0.071-1.979-0.183c-0.301-0.052-0.568-0.11-0.801-0.176
		c-0.232-0.066-0.482-0.154-0.751-0.266s-0.507-0.254-0.716-0.428c-0.21-0.172-0.381-0.375-0.511-0.604
		c-0.164-0.628-0.351-1.584-0.561-2.867l0.06-0.156l0.177-0.088c1.46,0.969,3.117,1.453,4.973,1.453
		c1.855,0,3.516-0.484,4.982-1.453c0.138,0.039,0.216,0.113,0.236,0.225c0.019,0.112,0.003,0.26-0.05,0.441
		C13.109,12.082,13.083,12.204,13.083,12.264z M12.523,2.102c-0.131-0.178-0.314-0.322-0.55-0.438
		c-0.236-0.115-0.426-0.187-0.569-0.215c-0.145-0.031-0.377-0.071-0.697-0.123C8.803,1.018,6.951,1.024,5.15,1.346
		C4.869,1.392,4.653,1.43,4.502,1.463s-0.33,0.105-0.54,0.217c-0.21,0.11-0.373,0.251-0.491,0.422
		c0.196,0.184,0.445,0.332,0.746,0.447c0.302,0.114,0.542,0.186,0.722,0.215C5.12,2.793,5.406,2.832,5.798,2.877
		c1.492,0.189,2.958,0.193,4.398,0.01c0.412-0.052,0.705-0.092,0.879-0.117c0.174-0.027,0.411-0.097,0.712-0.212
		C12.088,2.443,12.333,2.291,12.523,2.102z M10.177,7.422c-0.092-0.699-0.462-1.236-1.109-1.609
		C8.419,5.439,7.775,5.396,7.133,5.686C6.721,5.869,6.392,6.157,6.147,6.554c-0.245,0.396-0.358,0.82-0.339,1.271
		c0.026,0.596,0.28,1.103,0.762,1.521c0.48,0.419,1.021,0.603,1.624,0.55C8.79,9.845,9.287,9.57,9.686,9.072
		C10.085,8.574,10.249,8.025,10.177,7.422z M9.087,7.629c0.052,0.412-0.112,0.742-0.496,0.992C8.208,8.869,7.844,8.889,7.498,8.68
		c-0.256-0.111-0.431-0.302-0.526-0.57C6.876,7.842,6.875,7.574,6.966,7.305c0.092-0.268,0.263-0.458,0.511-0.57
		c0.236-0.116,0.474-0.156,0.712-0.116c0.239,0.038,0.448,0.154,0.629,0.348C8.998,7.159,9.087,7.381,9.087,7.629z"/>
</g>
</svg>
