<?xml version="1.0" encoding="utf-8"?>
<!-- Generator: Adobe Illustrator 15.0.0, SVG Export Plug-In . SVG Version: 6.00 Build 0)  -->
<!DOCTYPE svg PUBLIC "-//W3C//DTD SVG 1.1//EN" "http://www.w3.org/Graphics/SVG/1.1/DTD/svg11.dtd">
<svg version="1.1" id="Layer_1" xmlns="http://www.w3.org/2000/svg" xmlns:xlink="http://www.w3.org/1999/xlink" x="0px" y="0px"
	 width="16px" height="16px" viewBox="0 0 16 16" enable-background="new 0 0 16 16" xml:space="preserve">
<g>
	<path fill="#FFFFFF" d="M5.487,6.488C5.401,6.863,5.278,7.275,5.118,7.725L4.11,10.379h2.771L5.885,7.725
		C5.756,7.389,5.624,6.977,5.487,6.488z"/>
	<path fill="#FFFFFF" d="M0,0v16h16V0H0z M8.258,14l-1.066-2.725H3.758L2.704,14H1.696l3.387-8.602H5.92L9.289,14H8.258z M11.293,14
		H10.32V7.578h0.973V14z M11.217,6.327c-0.113,0.107-0.248,0.161-0.404,0.161c-0.164,0-0.301-0.054-0.41-0.161
		s-0.164-0.271-0.164-0.489c0-0.223,0.055-0.386,0.164-0.489s0.246-0.155,0.41-0.155c0.156,0,0.291,0.053,0.404,0.158
		s0.17,0.268,0.17,0.486S11.33,6.22,11.217,6.327z"/>
</g>
</svg>
