<?xml version="1.0" encoding="utf-8"?>
<!-- Generator: Adobe Illustrator 15.0.0, SVG Export Plug-In . SVG Version: 6.00 Build 0)  -->
<!DOCTYPE svg PUBLIC "-//W3C//DTD SVG 1.1//EN" "http://www.w3.org/Graphics/SVG/1.1/DTD/svg11.dtd">
<svg version="1.1" id="Layer_1" xmlns="http://www.w3.org/2000/svg" xmlns:xlink="http://www.w3.org/1999/xlink" x="0px" y="0px"
	 width="16px" height="16px" viewBox="0 0 16 16" enable-background="new 0 0 16 16" xml:space="preserve">
<g>
	<path fill="#FFFFFF" d="M7.162,7.838H6.151v5.181h0.83c1.719,0,2.578-0.872,2.578-2.617C9.559,8.692,8.76,7.838,7.162,7.838z"/>
	<path fill="#FFFFFF" d="M0,0v16h16V0H0z M2.87,14H1.874V5.434H2.87V14z M9.809,13.064C9.154,13.688,8.211,14,6.981,14H4.984V6.861
		h2.207c1.136,0,2.02,0.306,2.651,0.918c0.632,0.612,0.947,1.473,0.947,2.583C10.789,11.541,10.463,12.441,9.809,13.064z"/>
</g>
</svg>
