<?xml version="1.0" encoding="utf-8"?>
<!-- Generator: Adobe Illustrator 15.0.0, SVG Export Plug-In . SVG Version: 6.00 Build 0)  -->
<!DOCTYPE svg PUBLIC "-//W3C//DTD SVG 1.1//EN" "http://www.w3.org/Graphics/SVG/1.1/DTD/svg11.dtd">
<svg version="1.1" id="Layer_1" xmlns="http://www.w3.org/2000/svg" xmlns:xlink="http://www.w3.org/1999/xlink" x="0px" y="0px"
	 width="16px" height="16px" viewBox="0 0 16 16" enable-background="new 0 0 16 16" xml:space="preserve">
<g>
	<path fill="#FFFFFF" d="M5.718,6.711C5.347,6.434,4.769,6.295,3.983,6.295H2.87v3.48h0.896c0.883,0,1.521-0.143,1.916-0.428
		s0.592-0.742,0.592-1.371C6.274,7.41,6.089,6.988,5.718,6.711z"/>
	<path fill="#FFFFFF" d="M0,0v16h16V0H0z M6.418,9.931c-0.592,0.467-1.438,0.7-2.54,0.7H2.87V14H1.874V5.434h2.221
		c2.141,0,3.211,0.832,3.211,2.496C7.306,8.797,7.01,9.464,6.418,9.931z M12.427,13.631c-0.445,0.324-1.07,0.486-1.875,0.486
		c-0.852,0-1.516-0.135-1.992-0.404v-0.902c0.309,0.156,0.64,0.279,0.993,0.369s0.694,0.135,1.022,0.135
		c0.508,0,0.898-0.081,1.172-0.243s0.41-0.409,0.41-0.741c0-0.25-0.108-0.464-0.325-0.642s-0.64-0.388-1.269-0.63
		c-0.598-0.223-1.022-0.417-1.274-0.583S8.85,10.121,8.727,9.91S8.542,9.447,8.542,9.154c0-0.523,0.213-0.937,0.639-1.239
		s1.01-0.454,1.752-0.454c0.691,0,1.367,0.141,2.027,0.422l-0.346,0.791c-0.645-0.266-1.229-0.398-1.752-0.398
		c-0.461,0-0.809,0.072-1.043,0.217S9.468,8.836,9.468,9.09c0,0.172,0.044,0.318,0.132,0.439s0.229,0.236,0.425,0.346
		s0.57,0.268,1.125,0.475c0.762,0.277,1.276,0.557,1.544,0.838s0.401,0.635,0.401,1.061C13.095,12.846,12.872,13.307,12.427,13.631z
		"/>
</g>
</svg>
