<?xml version="1.0" encoding="utf-8"?>
<!-- Generator: Adobe Illustrator 15.0.0, SVG Export Plug-In . SVG Version: 6.00 Build 0)  -->
<!DOCTYPE svg PUBLIC "-//W3C//DTD SVG 1.1//EN" "http://www.w3.org/Graphics/SVG/1.1/DTD/svg11.dtd">
<svg version="1.1" id="Layer_1" xmlns="http://www.w3.org/2000/svg" xmlns:xlink="http://www.w3.org/1999/xlink" x="0px" y="0px"
	 width="16px" height="16px" viewBox="0 0 16 16" enable-background="new 0 0 16 16" xml:space="preserve">
<g id="WAMP">
	<path fill="#FFFFFF" d="M10.253,3.467v3.96h-0.01v2.476c0,0.188-0.166,0.354-0.354,0.354H9.505c-0.188,0-0.354-0.166-0.354-0.354
		V7.427H6.837v2.476c0,0.188-0.166,0.354-0.354,0.354H6.069c-0.188,0-0.354-0.166-0.354-0.354V7.427H5.706v-3.96
		C4.415,3.645,3.412,4.76,3.412,6.098v3.805c0,1.461,1.195,2.656,2.657,2.656h0.413c0.561,0,1.082-0.176,1.511-0.475
		c0.431,0.299,0.951,0.475,1.512,0.475h0.384c1.462,0,2.657-1.195,2.657-2.656V6.098C12.546,4.761,11.544,3.646,10.253,3.467z"/>
	<path fill="#FFFFFF" d="M2.303,5.904c0-0.955,0.377-1.858,1.061-2.541C4.047,2.68,4.949,2.303,5.905,2.303h4.19
		c0.955,0,1.858,0.377,2.542,1.061c0.684,0.683,1.06,1.586,1.06,2.541v1.553H16V5.904C16,2.657,13.343,0,10.096,0h-4.19
		C2.657,0,0,2.657,0,5.904v1.553h2.303V5.904z"/>
	<path fill="#FFFFFF" d="M13.697,10.096c0,0.955-0.376,1.858-1.06,2.541c-0.684,0.684-1.587,1.061-2.542,1.061h-4.19
		c-0.956,0-1.858-0.377-2.542-1.061c-0.684-0.683-1.061-1.586-1.061-2.541V8.578H0v1.518C0,13.343,2.657,16,5.905,16h4.19
		C13.343,16,16,13.343,16,10.096V8.578h-2.303V10.096z"/>
</g>
</svg>
