<?xml version="1.0" encoding="utf-8"?>
<!-- Generator: Adobe Illustrator 15.0.0, SVG Export Plug-In . SVG Version: 6.00 Build 0)  -->
<!DOCTYPE svg PUBLIC "-//W3C//DTD SVG 1.1//EN" "http://www.w3.org/Graphics/SVG/1.1/DTD/svg11.dtd">
<svg version="1.1" id="Layer_1" xmlns="http://www.w3.org/2000/svg" xmlns:xlink="http://www.w3.org/1999/xlink" x="0px" y="0px"
	 width="16px" height="16px" viewBox="0 0 16 16" enable-background="new 0 0 16 16" xml:space="preserve">
<g id="WordPress">
	<path fill="#FFFFFF" d="M4.894,0.634C5.881,0.211,6.917,0,8,0c1.084,0,2.119,0.211,3.107,0.634s1.839,0.991,2.554,1.706
		c0.714,0.714,1.282,1.564,1.705,2.553S16,6.917,16,8c0,1.084-0.211,2.119-0.634,3.107s-0.991,1.839-1.705,2.553
		c-0.715,0.715-1.565,1.283-2.554,1.706S9.084,16,8,16c-1.083,0-2.119-0.211-3.106-0.634c-0.988-0.423-1.84-0.991-2.554-1.706
		c-0.715-0.714-1.283-1.564-1.706-2.553C0.212,10.119,0,9.084,0,8c0-1.083,0.212-2.119,0.634-3.107
		C1.057,3.904,1.625,3.054,2.34,2.34C3.054,1.625,3.905,1.057,4.894,0.634z M5.04,15.027c0.943,0.404,1.931,0.606,2.96,0.606
		c1.03,0,2.017-0.202,2.96-0.606c0.943-0.405,1.756-0.948,2.438-1.63s1.225-1.494,1.63-2.438c0.404-0.943,0.606-1.931,0.606-2.96
		s-0.202-2.016-0.606-2.96c-0.405-0.943-0.948-1.756-1.63-2.438c-0.682-0.681-1.494-1.225-2.438-1.63
		C10.017,0.568,9.03,0.366,8,0.366c-1.029,0-2.017,0.202-2.96,0.606c-0.943,0.405-1.756,0.949-2.438,1.63
		C1.921,3.284,1.378,4.097,0.974,5.04C0.568,5.984,0.366,6.971,0.366,8s0.202,2.017,0.607,2.96c0.404,0.943,0.947,1.756,1.629,2.438
		S4.097,14.622,5.04,15.027z M1.134,8c0-0.971,0.2-1.902,0.599-2.795l3.276,8.974c-1.166-0.565-2.104-1.401-2.813-2.509
		C1.488,10.563,1.134,9.34,1.134,8z M12.634,7.652c0,0.113-0.007,0.227-0.021,0.344c-0.016,0.115-0.045,0.263-0.09,0.441
		s-0.079,0.31-0.103,0.393c-0.023,0.084-0.076,0.26-0.156,0.527s-0.133,0.44-0.156,0.518l-0.679,2.285L8.946,4.785
		c0.274-0.018,0.536-0.041,0.786-0.07c0.113-0.012,0.19-0.067,0.232-0.166c0.041-0.098,0.034-0.189-0.022-0.276
		s-0.142-0.126-0.255-0.12l-1.83,0.089C7.411,4.235,6.81,4.205,6.054,4.152C5.982,4.146,5.921,4.16,5.871,4.196
		C5.82,4.232,5.786,4.277,5.769,4.33C5.75,4.384,5.746,4.439,5.755,4.496s0.035,0.105,0.08,0.146
		C5.88,4.685,5.938,4.709,6.009,4.715l0.715,0.07l1.071,2.93l-1.5,4.5l-2.5-7.43c0.273-0.018,0.536-0.041,0.786-0.07
		c0.112-0.012,0.19-0.067,0.231-0.166C4.854,4.451,4.847,4.359,4.79,4.272s-0.141-0.126-0.254-0.12l-1.83,0.089
		c-0.042,0-0.11-0.001-0.206-0.005C2.405,4.234,2.327,4.232,2.269,4.232c0.625-0.953,1.441-1.707,2.45-2.264S6.821,1.134,8,1.134
		c0.875,0,1.71,0.158,2.505,0.474s1.504,0.759,2.129,1.33h-0.089c-0.327,0-0.602,0.121-0.821,0.361
		c-0.221,0.241-0.33,0.525-0.33,0.854c0,0.07,0.006,0.143,0.018,0.214s0.023,0.136,0.035,0.192c0.013,0.057,0.036,0.125,0.072,0.205
		c0.035,0.08,0.063,0.143,0.08,0.188s0.054,0.111,0.107,0.201c0.053,0.089,0.09,0.151,0.111,0.188
		c0.021,0.035,0.063,0.106,0.129,0.214c0.065,0.106,0.107,0.176,0.125,0.205C12.446,6.396,12.634,7.027,12.634,7.652z M8.116,8.598
		l2.116,5.777c0.006,0.035,0.021,0.068,0.045,0.098C9.527,14.735,8.769,14.866,8,14.866c-0.666,0-1.313-0.095-1.938-0.286
		L8.116,8.598z M14.019,4.705C14.584,5.741,14.866,6.84,14.866,8c0,1.244-0.31,2.392-0.929,3.441
		c-0.619,1.051-1.449,1.88-2.491,2.487l2.099-6.054c0.352-1.006,0.526-1.827,0.526-2.465C14.071,5.16,14.054,4.926,14.019,4.705z"/>
</g>
</svg>
